<svg id="Capa_1" enable-background="new 0 0 512 512" height="512" viewBox="0 0 512 512" width="512" xmlns="http://www.w3.org/2000/svg"><g><path d="m503.428 191.873h-170.803c-7.155 0-13.497-4.607-15.708-11.412l-52.781-162.443c-2.561-7.882-13.711-7.882-16.272 0l-52.781 162.443c-2.211 6.805-8.552 11.412-15.708 11.412l-170.039 11.395 407.264 291.866c.948-1.856 1.227-4.108.456-6.48l-52.781-162.444c-2.211-6.805.211-14.26 6-18.466l138.182-100.394c6.705-4.872 3.259-15.477-5.029-15.477z" fill="#ff9a9f"/><path d="m8.572 191.873c-8.288 0-11.733 10.605-5.029 15.476l138.183 100.396c5.789 4.206 8.211 11.661 6 18.466l-52.782 162.444c-2.561 7.882 6.46 14.436 13.165 9.565l138.182-100.396c5.789-4.206 13.628-4.206 19.416 0l138.184 100.396c4.689 3.406 10.508 1.23 12.709-3.085l-248.296-222.844c-7.34-6.588-10.073-16.904-6.958-26.262l18.029-54.155h-170.803z" fill="#ff8086"/><circle cx="256" cy="281.398" fill="#ecbd83" r="82.581"/><circle cx="256" cy="281.398" fill="#f6d190" r="66.064"/><path d="m288.258 293.269h-16.516c-4.565 0-8.258-3.698-8.258-8.258s3.694-8.258 8.258-8.258h16.516c4.565 0 8.258 3.698 8.258 8.258s-3.694 8.258-8.258 8.258z" fill="#f5ebcd"/><path d="m271.75 326.301c-2.669 0-5.29-1.29-6.879-3.677l-9.645-14.468-9.645 14.468c-2.524 3.786-7.645 4.823-11.452 2.29-3.798-2.528-4.823-7.657-2.29-11.452l16.516-24.774c3.065-4.597 10.677-4.597 13.742 0l16.516 24.774c2.532 3.794 1.508 8.923-2.29 11.452-1.412.94-3.001 1.387-4.573 1.387z" fill="#f5ebcd"/><path d="m271.742 301.527h-33.032c-4.561 0-8.258-3.697-8.258-8.258v-16.516c0-4.561 3.697-8.258 8.258-8.258h33.032c4.561 0 8.258 3.697 8.258 8.258v16.516c0 4.561-3.697 8.258-8.258 8.258z" fill="#fff"/><g fill="#f5ebcd"><circle cx="238.71" cy="251.979" r="16.516"/><circle cx="271.742" cy="251.979" r="16.516"/></g></g></svg>